<?xml version="1.0" encoding="UTF-8" standalone="no"?>
<svg
   xmlns:dc="http://purl.org/dc/elements/1.1/"
   xmlns:cc="http://creativecommons.org/ns#"
   xmlns:rdf="http://www.w3.org/1999/02/22-rdf-syntax-ns#"
   xmlns:svg="http://www.w3.org/2000/svg"
   xmlns="http://www.w3.org/2000/svg"
   xmlns:sodipodi="http://sodipodi.sourceforge.net/DTD/sodipodi-0.dtd"
   xmlns:inkscape="http://www.inkscape.org/namespaces/inkscape"
   role="img"
   viewBox="0 0 24 24"
   version="1.1"
   id="svg42"
   sodipodi:docname="medium.svg"
   inkscape:version="0.92.4 (unknown)">
  <metadata
     id="metadata48">
    <rdf:RDF>
      <cc:Work
         rdf:about="">
        <dc:format>image/svg+xml</dc:format>
        <dc:type
           rdf:resource="http://purl.org/dc/dcmitype/StillImage" />
      </cc:Work>
    </rdf:RDF>
  </metadata>
  <defs
     id="defs46" />
  <sodipodi:namedview
     pagecolor="#ffffff"
     bordercolor="#666666"
     borderopacity="1"
     objecttolerance="10"
     gridtolerance="10"
     guidetolerance="10"
     inkscape:pageopacity="0"
     inkscape:pageshadow="2"
     inkscape:window-width="640"
     inkscape:window-height="480"
     id="namedview44"
     showgrid="false"
     inkscape:zoom="9.8333333"
     inkscape:cx="12"
     inkscape:cy="12"
     inkscape:window-x="0"
     inkscape:window-y="27"
     inkscape:window-maximized="0"
     inkscape:current-layer="svg42" />
  <title
     id="title38">Medium icon</title>
  <path
     d="M0 0v24h24V0H0zm19.938 5.686L18.651 6.92a.376.376 0 0 0-.143.362v9.067a.376.376 0 0 0 .143.361l1.257 1.234v.271h-6.322v-.27l1.302-1.265c.128-.128.128-.165.128-.36V8.99l-3.62 9.195h-.49L6.69 8.99v6.163a.85.85 0 0 0 .233.707l1.694 2.054v.271H3.815v-.27L5.51 15.86a.82.82 0 0 0 .218-.707V8.027a.624.624 0 0 0-.203-.527L4.019 5.686v-.27h4.674l3.613 7.923 3.176-7.924h4.456v.271z"
     id="path40"
     style="fill:#ffffff" />
</svg>
